<?xml version="1.0" encoding="UTF-8"?>
<svg id="Ebene_1" data-name="Ebene 1" xmlns="http://www.w3.org/2000/svg" viewBox="0 0 1004.29 405.36">
  <defs>
    <style>
      .cls-1 {
        fill: #fff;
      }

      .cls-2 {
        fill: #da0000;
      }

      .cls-3 {
        fill: #239f40;
      }

      .cls-4 {
        stroke: #1d1d1b;
        stroke-miterlimit: 10;
      }
    </style>
  </defs>
  <rect class="cls-4" x=".5" y=".5" width="1003.29" height="404.36"/>
  <g>
    <path class="cls-3" d="m127.85,63.02c0,.66-.05,1.23-.15,1.7-.1.47-.23.85-.41,1.14s-.39.51-.64.64c-.25.14-.52.21-.79.21h-7.68l-2.34,19.45h6.8c.59,0,1.06.29,1.44.88.37.59.56,1.54.56,2.87,0,.66-.06,1.23-.18,1.7s-.25.85-.41,1.14c-.16.29-.36.51-.62.64-.25.14-.52.21-.79.21h-7.79l-2.46,20.04c-.04.27-.12.52-.23.73-.12.22-.33.39-.64.53-.31.14-.74.23-1.29.29-.55.06-1.27.09-2.17.09s-1.64-.03-2.23-.09-1.04-.16-1.35-.29c-.31-.14-.53-.31-.64-.53-.12-.21-.16-.46-.12-.73l2.46-20.04h-16.29l-2.46,20.04c-.08.27-.17.52-.26.73-.1.22-.29.39-.59.53s-.71.23-1.26.29c-.55.06-1.27.09-2.17.09s-1.7-.03-2.29-.09-1.04-.16-1.35-.29c-.31-.14-.53-.31-.64-.53-.12-.21-.16-.46-.12-.73l2.4-20.04h-6.8c-.59,0-1.06-.28-1.44-.85-.37-.57-.56-1.51-.56-2.84,0-.66.06-1.23.18-1.7s.25-.85.41-1.14c.16-.29.35-.52.59-.67.23-.16.51-.23.82-.23h7.85l2.4-19.45h-7.09c-.59,0-1.06-.29-1.44-.88-.37-.59-.56-1.5-.56-2.75,0-1.37.19-2.34.56-2.93.37-.59.85-.88,1.44-.88h7.97l2.4-18.81c.04-.27.13-.52.26-.73.14-.21.37-.39.7-.53.33-.14.79-.24,1.38-.32.59-.08,1.33-.12,2.23-.12s1.68.04,2.23.12c.55.08.97.19,1.26.32.29.14.48.31.56.53.08.22.12.44.12.67l-2.46,18.87h16.29l2.29-18.81c.04-.27.14-.52.29-.73.16-.21.39-.39.7-.53.31-.14.76-.24,1.35-.32.59-.08,1.35-.12,2.29-.12s1.63.04,2.2.12c.57.08.99.19,1.26.32.27.14.46.31.56.53.1.22.13.44.09.67l-2.34,18.87h6.74c.59,0,1.06.3,1.44.91.37.61.56,1.55.56,2.84Zm-34.63,3.69l-2.34,19.45h16.23l2.46-19.45h-16.35Z"/>
    <path class="cls-3" d="m212.69,112.71c-.16.55-.39.99-.7,1.32-.31.33-.74.59-1.29.76-.55.18-1.22.3-2.02.38-.8.08-1.79.12-2.96.12s-2.24-.04-3.08-.12c-.84-.08-1.53-.21-2.08-.38-.55-.18-.96-.43-1.23-.76-.27-.33-.49-.77-.64-1.32l-15.88-57.25h-.12l-14.65,57.25c-.12.55-.31.99-.59,1.32-.27.33-.66.59-1.17.76-.51.18-1.16.3-1.96.38-.8.08-1.83.12-3.08.12s-2.36-.04-3.22-.12c-.86-.08-1.56-.21-2.11-.38-.55-.18-.97-.43-1.26-.76-.29-.33-.5-.77-.62-1.32l-20.04-70.02c-.23-.9-.36-1.6-.38-2.11-.02-.51.14-.9.47-1.17.33-.27.87-.45,1.61-.53.74-.08,1.74-.12,2.99-.12s2.17.03,2.87.09,1.24.17,1.61.32c.37.16.62.37.76.64.14.27.24.63.32,1.05l17.05,63.52h.06l16.17-63.4c.12-.43.26-.79.44-1.08s.46-.52.85-.67c.39-.16.95-.27,1.67-.35.72-.08,1.67-.12,2.84-.12,1.09,0,1.96.04,2.61.12.64.08,1.16.2,1.55.35.39.16.67.38.85.67s.32.65.44,1.08l17.4,63.4h.12l16.7-63.46c.12-.39.23-.73.35-1.03s.36-.52.73-.67c.37-.16.9-.27,1.58-.35.68-.08,1.59-.12,2.72-.12s2.1.05,2.78.15c.68.1,1.18.28,1.49.56.31.27.46.66.44,1.17-.02.51-.13,1.21-.32,2.11l-20.1,69.96Z"/>
    <path class="cls-3" d="m309.08,76.15c0,6.13-.72,11.66-2.17,16.58-1.45,4.92-3.6,9.11-6.47,12.57s-6.47,6.11-10.81,7.97-9.4,2.78-15.18,2.78-10.63-.85-14.79-2.55-7.6-4.17-10.31-7.41c-2.72-3.24-4.74-7.27-6.06-12.07-1.33-4.8-1.99-10.33-1.99-16.58s.72-11.41,2.17-16.29c1.44-4.88,3.61-9.03,6.5-12.45,2.89-3.42,6.5-6.05,10.84-7.91,4.34-1.85,9.39-2.78,15.18-2.78s10.45.84,14.59,2.52c4.14,1.68,7.59,4.13,10.34,7.35s4.8,7.21,6.15,11.95,2.02,10.19,2.02,16.32Zm-10.66.7c0-4.3-.38-8.29-1.14-11.98s-2.03-6.89-3.8-9.61c-1.77-2.71-4.15-4.83-7.11-6.36s-6.63-2.29-11-2.29-8.04.82-11,2.46c-2.97,1.64-5.37,3.83-7.23,6.56-1.85,2.73-3.18,5.93-3.98,9.58-.8,3.65-1.2,7.49-1.2,11.51,0,4.45.37,8.55,1.11,12.3.74,3.75,1.99,6.98,3.75,9.7,1.76,2.72,4.11,4.82,7.05,6.33,2.95,1.5,6.64,2.26,11.09,2.26s8.11-.82,11.12-2.46c3-1.64,5.42-3.86,7.26-6.65,1.83-2.79,3.14-6.02,3.92-9.7.78-3.67,1.17-7.56,1.17-11.66Z"/>
    <path class="cls-3" d="m407.46,113.41c0,.31-.08.59-.24.82s-.44.42-.85.56c-.4.14-.92.25-1.54.35-.62.1-1.44.15-2.44.15-.93,0-1.72-.05-2.38-.15-.66-.1-1.19-.21-1.57-.35-.38-.14-.65-.32-.81-.56s-.24-.51-.24-.82V47.38h-.12l-26.72,66.33c-.12.27-.28.51-.5.7-.22.2-.53.36-.94.5s-.9.23-1.46.29c-.57.06-1.24.09-2.02.09-.82,0-1.52-.04-2.11-.12-.59-.08-1.07-.19-1.46-.32-.39-.14-.69-.3-.91-.5-.22-.19-.36-.41-.44-.64l-25.55-66.33h-.06v66.04c0,.31-.08.59-.24.82s-.44.42-.85.56c-.4.14-.93.25-1.57.35-.64.1-1.47.15-2.47.15s-1.77-.05-2.41-.15c-.64-.1-1.16-.21-1.54-.35-.38-.14-.64-.32-.78-.56s-.21-.51-.21-.82V43.69c0-1.64.44-2.81,1.31-3.52s1.85-1.05,2.92-1.05h6.19c1.27,0,2.38.12,3.33.35s1.78.61,2.5,1.11c.71.51,1.31,1.15,1.79,1.93.48.78.89,1.7,1.25,2.75l21.68,54.9h.29l22.56-54.73c.44-1.17.91-2.17,1.43-2.99s1.08-1.47,1.7-1.96c.62-.49,1.3-.84,2.05-1.05.75-.21,1.63-.32,2.62-.32h6.49c.6,0,1.16.09,1.7.26s.99.45,1.37.82c.38.37.68.84.92,1.41.24.57.36,1.26.36,2.08v69.73Z"/>
    <path class="cls-3" d="m484.39,111.36c.31.86.48,1.55.5,2.08.02.53-.13.93-.44,1.2-.31.27-.83.45-1.55.53-.72.08-1.69.12-2.9.12s-2.18-.03-2.9-.09c-.72-.06-1.27-.16-1.64-.29-.37-.14-.64-.32-.82-.56s-.34-.53-.5-.88l-6.5-18.46h-31.52l-6.21,18.22c-.12.35-.27.65-.47.91-.2.25-.48.47-.85.64-.37.18-.9.3-1.58.38-.68.08-1.57.12-2.67.12s-2.06-.05-2.78-.15c-.72-.1-1.23-.28-1.52-.56-.29-.27-.43-.67-.41-1.2.02-.53.19-1.22.5-2.08l25.43-70.43c.16-.43.36-.78.62-1.05.25-.27.62-.49,1.11-.64.49-.16,1.11-.26,1.88-.32s1.73-.09,2.9-.09c1.25,0,2.29.03,3.11.09s1.48.17,1.99.32c.51.16.9.38,1.17.67.27.29.49.65.64,1.08l25.43,70.43Zm-32.64-62.17h-.06l-13.07,37.79h26.37l-13.24-37.79Z"/>
    <path class="cls-3" d="m554.36,110.78c0,.78-.13,1.45-.39,1.99-.26.55-.61,1-1.03,1.35-.42.35-.9.61-1.42.76-.53.16-1.05.23-1.58.23h-3.33c-1.05,0-1.97-.11-2.76-.32-.79-.21-1.54-.6-2.24-1.17-.71-.57-1.42-1.34-2.12-2.31-.71-.98-1.46-2.23-2.25-3.75l-23.13-43.12c-1.21-2.23-2.43-4.56-3.66-7-1.23-2.44-2.37-4.81-3.43-7.12h-.12c.08,2.81.14,5.68.18,8.61.04,2.93.06,5.84.06,8.73v45.76c0,.27-.08.54-.25.79-.17.25-.44.45-.83.59-.39.14-.91.25-1.55.35-.64.1-1.45.15-2.44.15s-1.8-.05-2.44-.15c-.64-.1-1.14-.21-1.51-.35-.37-.14-.64-.33-.8-.59-.17-.25-.25-.52-.25-.79V43.45c0-1.56.44-2.68,1.33-3.34.89-.66,1.86-1,2.9-1h4.96c1.17,0,2.15.1,2.93.29.79.2,1.49.52,2.12.97.62.45,1.23,1.07,1.81,1.88.58.8,1.2,1.81,1.84,3.02l17.78,33.28c1.1,2.03,2.15,4.01,3.17,5.95,1.02,1.93,2,3.84,2.94,5.71.94,1.88,1.88,3.72,2.8,5.54.92,1.82,1.84,3.64,2.75,5.48h.06c-.08-3.09-.13-6.3-.15-9.64-.02-3.34-.03-6.55-.03-9.64v-41.13c0-.27.08-.53.25-.76s.44-.44.83-.62.91-.3,1.55-.38c.64-.08,1.47-.12,2.5-.12.91,0,1.69.04,2.35.12.66.08,1.17.21,1.55.38.37.18.64.38.8.62s.25.49.25.76v69.96Z"/>
  </g>
  <g>
    <path class="cls-1" d="m129.96,181.03c0,.66-.05,1.23-.15,1.7-.1.47-.23.85-.41,1.14s-.39.51-.64.64c-.25.14-.52.21-.79.21h-7.68l-2.34,19.45h6.8c.59,0,1.06.29,1.44.88.37.59.56,1.54.56,2.87,0,.66-.06,1.23-.18,1.7s-.25.85-.41,1.14c-.16.29-.36.51-.62.64-.25.14-.52.21-.79.21h-7.79l-2.46,20.04c-.04.27-.12.52-.23.73s-.33.39-.64.53c-.31.14-.74.23-1.29.29-.55.06-1.27.09-2.17.09s-1.64-.03-2.23-.09-1.04-.16-1.35-.29c-.31-.14-.53-.31-.64-.53s-.16-.46-.12-.73l2.46-20.04h-16.29l-2.46,20.04c-.08.27-.17.52-.26.73-.1.21-.29.39-.59.53-.29.14-.71.23-1.26.29-.55.06-1.27.09-2.17.09s-1.7-.03-2.29-.09-1.04-.16-1.35-.29c-.31-.14-.53-.31-.64-.53s-.16-.46-.12-.73l2.4-20.04h-6.8c-.59,0-1.06-.28-1.44-.85-.37-.57-.56-1.51-.56-2.84,0-.66.06-1.23.18-1.7s.25-.85.41-1.14c.16-.29.35-.52.59-.67s.51-.23.82-.23h7.85l2.4-19.45h-7.09c-.59,0-1.06-.29-1.44-.88-.37-.59-.56-1.5-.56-2.75,0-1.37.19-2.34.56-2.93.37-.59.85-.88,1.44-.88h7.97l2.4-18.81c.04-.27.13-.52.26-.73.14-.21.37-.39.7-.53.33-.14.79-.24,1.38-.32.59-.08,1.33-.12,2.23-.12s1.68.04,2.23.12c.55.08.97.19,1.26.32.29.14.48.31.56.53.08.22.12.44.12.67l-2.46,18.87h16.29l2.29-18.81c.04-.27.14-.52.29-.73.16-.21.39-.39.7-.53.31-.14.76-.24,1.35-.32.59-.08,1.35-.12,2.29-.12s1.63.04,2.2.12c.57.08.99.19,1.26.32.27.14.46.31.56.53.1.22.13.44.09.67l-2.34,18.87h6.74c.59,0,1.06.3,1.44.91.37.61.56,1.55.56,2.84Zm-34.63,3.69l-2.34,19.45h16.23l2.46-19.45h-16.35Z"/>
    <path class="cls-1" d="m181.52,228.55c0,.78-.04,1.44-.12,1.96-.08.53-.21.98-.38,1.35s-.39.64-.64.82c-.25.18-.56.26-.91.26h-33.52c-.9,0-1.75-.3-2.55-.91-.8-.61-1.2-1.67-1.2-3.19v-70.2c0-.31.08-.59.23-.82.16-.23.43-.42.82-.56.39-.14.92-.25,1.58-.35.66-.1,1.46-.15,2.4-.15s1.79.05,2.43.15c.64.1,1.16.22,1.55.35.39.14.66.32.82.56.16.23.23.51.23.82v65.57h27.19c.35,0,.65.09.91.26.25.18.47.43.64.76s.3.77.38,1.32c.08.55.12,1.21.12,1.99Z"/>
    <path class="cls-1" d="m202.73,231.42c0,.31-.08.59-.23.82-.16.23-.43.42-.82.56-.39.14-.91.25-1.55.35-.64.1-1.46.15-2.43.15s-1.74-.05-2.4-.15c-.66-.1-1.19-.21-1.58-.35-.39-.14-.66-.32-.82-.56-.16-.23-.23-.51-.23-.82v-72.77c0-.31.09-.59.26-.82s.47-.42.88-.56c.41-.14.94-.25,1.58-.35.64-.1,1.42-.15,2.31-.15.98,0,1.79.05,2.43.15.64.1,1.16.22,1.55.35.39.14.66.32.82.56.16.23.23.51.23.82v72.77Z"/>
    <path class="cls-1" d="m262.73,161.46c0,.74-.04,1.39-.12,1.93-.08.55-.22.99-.41,1.32-.2.33-.42.58-.67.73-.25.16-.52.23-.79.23h-27.77v25.78h26.25c.27,0,.54.07.79.21.25.14.48.36.67.67.19.31.33.73.41,1.26.08.53.12,1.2.12,2.02,0,.74-.04,1.38-.12,1.9-.08.53-.22.96-.41,1.29-.2.33-.42.59-.67.76-.25.18-.52.26-.79.26h-26.25v31.58c0,.27-.08.54-.23.79-.16.25-.43.45-.82.59-.39.14-.9.25-1.52.35-.63.1-1.45.15-2.46.15-.94,0-1.74-.05-2.4-.15-.66-.1-1.19-.21-1.58-.35-.39-.14-.66-.33-.82-.59-.16-.25-.23-.52-.23-.79v-70.2c0-1.52.4-2.59,1.2-3.19.8-.6,1.65-.91,2.55-.91h34.1c.27,0,.54.08.79.23.25.16.48.41.67.76.19.35.33.81.41,1.38.08.57.12,1.22.12,1.96Z"/>
    <path class="cls-1" d="m320.21,228.78c0,.7-.04,1.32-.12,1.85-.08.53-.22.97-.41,1.32-.2.35-.42.61-.67.76-.25.16-.54.23-.85.23h-36.39c-.9,0-1.75-.3-2.55-.91-.8-.61-1.2-1.67-1.2-3.19v-67.62c0-1.52.4-2.59,1.2-3.19.8-.6,1.65-.91,2.55-.91h35.98c.31,0,.6.08.85.23.25.16.46.41.62.76.16.35.28.79.38,1.32.1.53.15,1.18.15,1.96,0,.7-.05,1.32-.15,1.85-.1.53-.23.96-.38,1.29-.16.33-.36.58-.62.73-.25.16-.54.23-.85.23h-29.65v23.79h25.43c.31,0,.6.09.85.26.25.18.47.42.64.73.18.31.3.74.38,1.29.08.55.12,1.19.12,1.93,0,.7-.04,1.31-.12,1.82-.08.51-.21.92-.38,1.23-.18.31-.39.54-.64.67-.25.14-.54.21-.85.21h-25.43v27.13h30.06c.31,0,.6.08.85.23.25.16.48.4.67.73.19.33.33.76.41,1.29.08.53.12,1.18.12,1.96Z"/>
  </g>
  <g>
    <path class="cls-2" d="m129.96,299.22c0,.66-.05,1.23-.15,1.7-.1.47-.23.85-.41,1.14s-.39.51-.64.64c-.25.14-.52.21-.79.21h-7.68l-2.34,19.45h6.8c.59,0,1.06.29,1.44.88.37.59.56,1.54.56,2.87,0,.66-.06,1.23-.18,1.7s-.25.85-.41,1.14c-.16.29-.36.51-.62.64-.25.14-.52.21-.79.21h-7.79l-2.46,20.04c-.04.27-.12.52-.23.73s-.33.39-.64.53c-.31.14-.74.23-1.29.29-.55.06-1.27.09-2.17.09s-1.64-.03-2.23-.09-1.04-.16-1.35-.29c-.31-.14-.53-.31-.64-.53s-.16-.46-.12-.73l2.46-20.04h-16.29l-2.46,20.04c-.08.27-.17.52-.26.73-.1.21-.29.39-.59.53-.29.14-.71.23-1.26.29-.55.06-1.27.09-2.17.09s-1.7-.03-2.29-.09-1.04-.16-1.35-.29c-.31-.14-.53-.31-.64-.53s-.16-.46-.12-.73l2.4-20.04h-6.8c-.59,0-1.06-.28-1.44-.85-.37-.57-.56-1.51-.56-2.84,0-.66.06-1.23.18-1.7s.25-.85.41-1.14c.16-.29.35-.52.59-.67s.51-.23.82-.23h7.85l2.4-19.45h-7.09c-.59,0-1.06-.29-1.44-.88-.37-.59-.56-1.5-.56-2.75,0-1.37.19-2.34.56-2.93.37-.59.85-.88,1.44-.88h7.97l2.4-18.81c.04-.27.13-.52.26-.73.14-.21.37-.39.7-.53.33-.14.79-.24,1.38-.32s1.33-.12,2.23-.12,1.68.04,2.23.12c.55.08.97.19,1.26.32s.48.31.56.53c.08.21.12.44.12.67l-2.46,18.87h16.29l2.29-18.81c.04-.27.14-.52.29-.73.16-.21.39-.39.7-.53.31-.14.76-.24,1.35-.32s1.35-.12,2.29-.12,1.63.04,2.2.12c.57.08.99.19,1.26.32.27.14.46.31.56.53.1.21.13.44.09.67l-2.34,18.87h6.74c.59,0,1.06.3,1.44.91.37.61.56,1.55.56,2.84Zm-34.63,3.69l-2.34,19.45h16.23l2.46-19.45h-16.35Z"/>
    <path class="cls-2" d="m182.05,279.65c0,.74-.04,1.39-.12,1.93-.08.55-.22.99-.41,1.32-.2.33-.42.58-.67.73-.25.16-.52.23-.79.23h-27.77v25.78h26.25c.27,0,.54.07.79.21.25.14.48.36.67.67.19.31.33.73.41,1.26.08.53.12,1.2.12,2.02,0,.74-.04,1.38-.12,1.9-.08.53-.22.96-.41,1.29-.2.33-.42.59-.67.76-.25.18-.52.26-.79.26h-26.25v31.58c0,.27-.08.54-.23.79-.16.25-.43.45-.82.59-.39.14-.9.25-1.52.35-.63.1-1.45.15-2.46.15-.94,0-1.74-.05-2.4-.15-.66-.1-1.19-.21-1.58-.35-.39-.14-.66-.33-.82-.59-.16-.25-.23-.52-.23-.79v-70.2c0-1.52.4-2.59,1.2-3.19.8-.61,1.65-.91,2.55-.91h34.1c.27,0,.54.08.79.23.25.16.48.41.67.76.19.35.33.81.41,1.38.08.57.12,1.22.12,1.96Z"/>
    <path class="cls-2" d="m247.91,349.61c0,.31-.06.59-.18.82s-.37.43-.76.59c-.39.16-.94.27-1.64.35-.7.08-1.64.12-2.81.12-1.02,0-1.85-.04-2.49-.12-.64-.08-1.16-.21-1.55-.38-.39-.18-.69-.42-.91-.73-.22-.31-.4-.7-.56-1.17l-6.97-17.87c-.82-2.03-1.67-3.9-2.55-5.6s-1.92-3.16-3.13-4.39c-1.21-1.23-2.64-2.19-4.28-2.87s-3.61-1.03-5.92-1.03h-6.74v32.29c0,.31-.09.59-.26.82s-.45.42-.82.56c-.37.14-.88.25-1.52.35-.64.1-1.46.15-2.43.15s-1.79-.05-2.43-.15c-.64-.1-1.16-.21-1.55-.35-.39-.14-.66-.32-.82-.56-.16-.23-.23-.51-.23-.82v-70.2c0-1.52.4-2.59,1.2-3.19.8-.61,1.65-.91,2.55-.91h16.11c1.91,0,3.51.05,4.78.15,1.27.1,2.41.21,3.43.32,2.93.51,5.52,1.31,7.76,2.4,2.25,1.09,4.13,2.48,5.65,4.16s2.67,3.6,3.43,5.77,1.14,4.56,1.14,7.18-.34,4.81-1.03,6.83c-.68,2.01-1.67,3.79-2.96,5.33s-2.83,2.88-4.63,4.01c-1.8,1.13-3.81,2.09-6.04,2.87,1.25.55,2.38,1.24,3.4,2.08,1.02.84,1.96,1.85,2.84,3.02s1.71,2.52,2.49,4.04c.78,1.52,1.56,3.24,2.34,5.16l6.8,16.7c.55,1.41.9,2.39,1.05,2.96.16.57.23,1.01.23,1.32Zm-15.18-53.26c0-2.97-.66-5.48-1.99-7.53-1.33-2.05-3.56-3.53-6.68-4.42-.98-.27-2.08-.47-3.31-.59s-2.84-.18-4.83-.18h-8.5v25.55h9.84c2.66,0,4.95-.32,6.88-.97s3.54-1.54,4.83-2.7,2.24-2.51,2.84-4.07c.6-1.56.91-3.26.91-5.1Z"/>
    <path class="cls-2" d="m304.69,346.97c0,.7-.04,1.32-.12,1.85-.08.53-.22.97-.41,1.32-.2.35-.42.61-.67.76-.25.16-.54.23-.85.23h-36.39c-.9,0-1.75-.3-2.55-.91-.8-.61-1.2-1.67-1.2-3.19v-67.62c0-1.52.4-2.59,1.2-3.19.8-.61,1.65-.91,2.55-.91h35.98c.31,0,.6.08.85.23.25.16.46.41.62.76.16.35.28.79.38,1.32.1.53.15,1.18.15,1.96,0,.7-.05,1.32-.15,1.85-.1.53-.23.96-.38,1.29-.16.33-.36.58-.62.73-.25.16-.54.23-.85.23h-29.65v23.79h25.43c.31,0,.6.09.85.26.25.18.47.42.64.73s.3.74.38,1.29c.08.55.12,1.19.12,1.93,0,.7-.04,1.31-.12,1.82-.08.51-.21.92-.38,1.23s-.39.54-.64.67c-.25.14-.54.21-.85.21h-25.43v27.13h30.06c.31,0,.6.08.85.23.25.16.48.4.67.73.19.33.33.76.41,1.29.08.53.12,1.18.12,1.96Z"/>
    <path class="cls-2" d="m363.28,346.97c0,.7-.04,1.32-.12,1.85-.08.53-.22.97-.41,1.32-.2.35-.42.61-.67.76-.25.16-.54.23-.85.23h-36.39c-.9,0-1.75-.3-2.55-.91-.8-.61-1.2-1.67-1.2-3.19v-67.62c0-1.52.4-2.59,1.2-3.19.8-.61,1.65-.91,2.55-.91h35.98c.31,0,.6.08.85.23.25.16.46.41.62.76.16.35.28.79.38,1.32.1.53.15,1.18.15,1.96,0,.7-.05,1.32-.15,1.85-.1.53-.23.96-.38,1.29-.16.33-.36.58-.62.73-.25.16-.54.23-.85.23h-29.65v23.79h25.43c.31,0,.6.09.85.26.25.18.47.42.64.73s.3.74.38,1.29c.08.55.12,1.19.12,1.93,0,.7-.04,1.31-.12,1.82-.08.51-.21.92-.38,1.23s-.39.54-.64.67c-.25.14-.54.21-.85.21h-25.43v27.13h30.06c.31,0,.6.08.85.23.25.16.48.4.67.73.19.33.33.76.41,1.29.08.53.12,1.18.12,1.96Z"/>
    <path class="cls-2" d="m437.99,312.11c0,6.56-.84,12.29-2.52,17.2-1.68,4.9-4.13,8.96-7.35,12.19s-7.18,5.63-11.87,7.24-10.27,2.4-16.76,2.4h-16.05c-.9,0-1.75-.3-2.55-.91-.8-.61-1.2-1.67-1.2-3.19v-67.62c0-1.52.4-2.59,1.2-3.19.8-.61,1.65-.91,2.55-.91h17.17c6.56,0,12.11.85,16.64,2.55,4.53,1.7,8.33,4.14,11.4,7.32,3.07,3.18,5.39,7.04,6.97,11.57s2.37,9.65,2.37,15.35Zm-10.61.41c0-4.1-.51-7.92-1.52-11.46-1.02-3.54-2.61-6.59-4.78-9.17s-4.91-4.59-8.23-6.04c-3.32-1.45-7.6-2.17-12.83-2.17h-10.25v59h10.37c4.84,0,8.93-.61,12.25-1.82,3.32-1.21,6.09-3.07,8.32-5.57s3.9-5.63,5.01-9.4,1.67-8.23,1.67-13.39Z"/>
    <path class="cls-2" d="m517.03,312.34c0,6.13-.72,11.66-2.17,16.58-1.45,4.92-3.6,9.11-6.47,12.57s-6.47,6.11-10.81,7.97c-4.34,1.85-9.4,2.78-15.18,2.78s-10.63-.85-14.79-2.55-7.6-4.17-10.31-7.41c-2.72-3.24-4.74-7.27-6.06-12.07-1.33-4.8-1.99-10.33-1.99-16.58s.72-11.41,2.17-16.29c1.44-4.88,3.61-9.03,6.5-12.45,2.89-3.42,6.5-6.05,10.84-7.91s9.39-2.78,15.18-2.78,10.45.84,14.59,2.52c4.14,1.68,7.59,4.13,10.34,7.35s4.8,7.21,6.15,11.95,2.02,10.19,2.02,16.32Zm-10.66.7c0-4.3-.38-8.29-1.14-11.98s-2.03-6.89-3.8-9.61c-1.78-2.71-4.15-4.83-7.11-6.36s-6.63-2.29-11-2.29-8.04.82-11,2.46-5.37,3.83-7.23,6.56c-1.85,2.73-3.18,5.93-3.98,9.58-.8,3.65-1.2,7.49-1.2,11.51,0,4.45.37,8.55,1.11,12.3.74,3.75,1.99,6.98,3.75,9.7,1.76,2.71,4.11,4.82,7.05,6.33,2.95,1.5,6.64,2.26,11.09,2.26s8.11-.82,11.12-2.46c3-1.64,5.42-3.86,7.26-6.65,1.83-2.79,3.14-6.03,3.92-9.7s1.17-7.56,1.17-11.66Z"/>
    <path class="cls-2" d="m615.41,349.61c0,.31-.08.59-.24.82-.16.23-.44.42-.84.56-.4.14-.92.25-1.54.35-.62.1-1.44.15-2.44.15-.93,0-1.72-.05-2.38-.15-.66-.1-1.19-.21-1.57-.35s-.65-.32-.81-.56-.24-.51-.24-.82v-66.04h-.12l-26.72,66.33c-.12.27-.28.51-.5.7-.21.2-.53.36-.94.5-.41.14-.9.23-1.46.29-.57.06-1.24.09-2.02.09-.82,0-1.52-.04-2.11-.12-.59-.08-1.08-.19-1.46-.32-.39-.14-.69-.3-.91-.5-.21-.2-.36-.41-.44-.64l-25.55-66.33h-.06v66.04c0,.31-.08.59-.24.82-.16.23-.44.42-.84.56-.4.14-.93.25-1.57.35-.64.1-1.47.15-2.47.15s-1.77-.05-2.41-.15c-.64-.1-1.16-.21-1.54-.35s-.64-.32-.78-.56c-.14-.23-.21-.51-.21-.82v-69.73c0-1.64.44-2.81,1.31-3.52.87-.7,1.84-1.05,2.92-1.05h6.19c1.27,0,2.38.12,3.33.35s1.78.61,2.5,1.11,1.31,1.15,1.79,1.93c.48.78.89,1.7,1.25,2.75l21.68,54.9h.29l22.56-54.73c.44-1.17.91-2.17,1.43-2.99.52-.82,1.08-1.47,1.7-1.96s1.3-.84,2.05-1.05,1.63-.32,2.62-.32h6.49c.59,0,1.16.09,1.7.26.54.18.99.45,1.37.82.38.37.69.84.92,1.41.24.57.36,1.26.36,2.08v69.73Z"/>
  </g>
</svg>